<svg xmlns="http://www.w3.org/2000/svg" data-name="Layer 1" viewBox="0 -25 100 150" x="0px" y="0px"><title>Untitled-1</title><path data-name="film 2" d="M4.22,0V100H95.78V0H4.22Zm19,92.63H11.88V81.3H23.19V92.63h0Zm0-18.33H11.88V63H23.19V74.3h0Zm0-18.64H11.88V44.33H23.19V55.66h0Zm0-18.34H11.88V26H23.19V37.33h0Zm0-18.33H11.88V7.67H23.19V19h0ZM69.14,92.63H30.85V54.31H69.14V92.63h0Zm0-46.64H30.85V7.67H69.14V46h0Zm19,46.64H76.79V81.3H88.12V92.63h0Zm0-18.33H76.79V63H88.12V74.3h0Zm0-18.64H76.79V44.33H88.12V55.66h0Zm0-18.34H76.79V26H88.12V37.33h0Zm0-18.33H76.79V7.67H88.12V19h0Z"/></svg>